<?xml version="1.0" standalone="no"?>
<!DOCTYPE svg PUBLIC "-//W3C//DTD SVG 20010904//EN"
 "http://www.w3.org/TR/2001/REC-SVG-20010904/DTD/svg10.dtd">
<svg version="1.0" xmlns="http://www.w3.org/2000/svg"
 width="1051.000000pt" height="1051.000000pt" viewBox="0 0 1051.000000 1051.000000"
 preserveAspectRatio="xMidYMid meet">
<metadata>
Created by potrace 1.11, written by Peter Selinger 2001-2013
</metadata>
<g transform="translate(0.000000,1051.000000) scale(0.100000,-0.100000)"
fill="#000000" stroke="none">
<path d="M2630 7880 c-1441 -1442 -2620 -2624 -2620 -2628 0 -4 1180 -1187
2623 -2630 l2623 -2623 2627 2628 2628 2627 -2623 2623 c-1443 1443 -2626
2623 -2630 2623 -4 0 -1186 -1179 -2628 -2620z m4352 -2607 c18 -21 11 -29
-854 -893 l-871 -872 -873 873 -873 873 872 872 872 873 855 -852 c470 -469
863 -862 872 -874z"/>
</g>
</svg>
