<svg xmlns="http://www.w3.org/2000/svg" viewBox="0 0 272 272"><defs><style>.cls-1{fill:#262626;}</style></defs><title>newtab</title><g id="Layer_2" data-name="Layer 2"><g id="Layer_1-2" data-name="Layer 1"><polygon class="cls-1" points="20 72 0 72 0 272 20 272 20 72 20 72"/><polygon class="cls-1" points="200 72 180 72 180 272 200 272 200 72 200 72"/><polygon class="cls-1" points="200 72 0 72 0 92 200 92 200 72 200 72"/><polygon class="cls-1" points="200 252 0 252 0 272 200 272 200 252 200 252"/><polygon class="cls-1" points="92 0 72 0 72 60 92 60 92 0 92 0"/><polygon class="cls-1" points="272 0 252 0 252 200 272 200 272 0 272 0"/><polygon class="cls-1" points="272 0 72 0 72 20 272 20 272 0 272 0"/><polygon class="cls-1" points="272 180 212 180 212 200 272 200 272 180 272 180"/><polygon class="cls-1" points="110 107 90 107 90 237 110 237 110 107 110 107"/><polygon class="cls-1" points="165 162 35 162 35 182 165 182 165 162 165 162"/></g></g></svg>